<?xml version="1.0" encoding="utf-8"?>
<!-- Generator: Adobe Illustrator 19.0.1, SVG Export Plug-In . SVG Version: 6.00 Build 0)  -->
<svg version="1.1" id="Шар_1" xmlns="http://www.w3.org/2000/svg" xmlns:xlink="http://www.w3.org/1999/xlink" x="0px" y="0px"
	 viewBox="0 0 800 600" style="enable-background:new 0 0 800 600;" xml:space="preserve">
<style type="text/css">
	.st0{fill:none;}
</style>
<g>
	<polygon class="st0" points="524,299.8 489.1,297 457.4,297 457.4,349.1 493.8,349.1 520.7,347.9 535,340.1 540.5,323.6 
		536.3,308.7 	"/>
	<polygon class="st0" points="511.7,263.9 527.6,257 533.4,241.8 528.4,227.1 513.6,220.2 480,219.6 457.4,219.6 457.4,264.6 
		483.1,264.6 	"/>
	<polygon points="291.4,299.1 291.4,266.2 252.1,284.5 	"/>
	<polygon points="291.4,266.2 291.4,243.1 252.1,187.2 	"/>
	<polygon points="252.1,284.5 291.4,266.2 252.1,187.2 	"/>
	<polygon points="291.4,340.5 291.4,299.1 252.1,284.5 	"/>
	<polygon points="252.1,381.9 291.4,340.5 252.1,284.5 	"/>
	<polygon points="291.4,243.1 291.4,220.1 252.1,187.2 	"/>
	<polygon points="338.4,220.1 385.5,187.2 318.8,187.2 	"/>
	<polygon points="291.4,220.1 338.4,220.1 318.8,187.2 	"/>
	<polygon points="252.1,187.2 291.4,220.1 318.8,187.2 	"/>
	<polygon points="385.5,220.1 385.5,203.6 338.4,220.1 	"/>
	<polygon points="372.6,299.1 372.6,282.7 332,299.1 	"/>
	<polygon points="372.6,266.2 332,266.2 332,299.1 	"/>
	<polygon points="372.6,282.7 372.6,266.2 332,299.1 	"/>
	<polygon points="385.5,203.6 385.5,187.2 338.4,220.1 	"/>
	<polygon points="271.7,381.9 291.4,340.5 252.1,381.9 	"/>
	<polygon points="291.4,361.2 291.4,340.5 271.7,381.9 	"/>
	<polygon points="291.4,381.9 291.4,361.2 271.7,381.9 	"/>
	<polygon points="332,266.2 291.4,266.2 332,299.1 	"/>
	<polygon points="332,299.1 291.4,266.2 291.4,299.1 	"/>
	<polygon points="540.5,323.6 575,351.3 581.2,325.4 	"/>
	<polygon points="581.2,325.4 571.6,296.1 536.3,308.7 	"/>
	<polygon points="540.5,323.6 581.2,325.4 536.3,308.7 	"/>
	<polygon points="483.1,264.6 457.4,297 489.1,297 	"/>
	<polygon points="524,299.8 511.7,263.9 489.1,297 	"/>
	<polygon points="489.1,297 511.7,263.9 483.1,264.6 	"/>
	<polygon points="457.4,264.6 457.4,297 483.1,264.6 	"/>
	<polygon points="550.7,197.1 530.4,189.1 528.4,227.1 	"/>
	<polygon points="418.1,187.2 418.1,381.9 457.4,297 	"/>
	<polygon points="480,219.6 495.9,187.2 457.4,219.6 	"/>
	<polygon points="418.1,381.9 484.3,381.9 457.4,349.1 	"/>
	<polygon points="457.4,297 418.1,381.9 457.4,349.1 	"/>
	<polygon points="457.4,219.6 418.1,187.2 457.4,264.6 	"/>
	<polygon points="495.9,187.2 418.1,187.2 457.4,219.6 	"/>
	<polygon points="457.4,264.6 418.1,187.2 457.4,297 	"/>
	<polygon points="520.7,347.9 558.1,371.3 535,340.1 	"/>
	<polygon points="558.1,371.3 575,351.3 535,340.1 	"/>
	<polygon points="531.8,380.5 558.1,371.3 520.7,347.9 	"/>
	<polygon points="493.8,349.1 531.8,380.5 520.7,347.9 	"/>
	<polygon points="457.4,349.1 484.3,381.9 493.8,349.1 	"/>
	<polygon points="484.3,381.9 531.8,380.5 493.8,349.1 	"/>
	<polygon points="528.4,227.1 530.4,189.1 513.6,220.2 	"/>
	<polygon points="511.7,263.9 544.2,278.4 527.6,257 	"/>
	<polygon points="564.2,261.3 571.6,236.2 533.4,241.8 	"/>
	<polygon points="513.6,220.2 495.9,187.2 480,219.6 	"/>
	<polygon points="527.6,257 544.2,278.4 533.4,241.8 	"/>
	<polygon points="571.6,296.1 544.2,278.4 524,299.8 	"/>
	<polygon points="524,299.8 544.2,278.4 511.7,263.9 	"/>
	<polygon points="544.2,278.4 564.2,261.3 533.4,241.8 	"/>
	<polygon points="535,340.1 575,351.3 540.5,323.6 	"/>
	<polygon points="536.3,308.7 571.6,296.1 524,299.8 	"/>
	<polygon points="530.4,189.1 495.9,187.2 513.6,220.2 	"/>
	<polygon points="565.6,213.4 550.7,197.1 533.4,241.8 	"/>
	<polygon points="571.6,236.2 565.6,213.4 533.4,241.8 	"/>
	<polygon points="533.4,241.8 550.7,197.1 528.4,227.1 	"/>
</g>
</svg>
