<?xml version="1.0" encoding="utf-8"?>
<!-- Generator: Adobe Illustrator 19.0.1, SVG Export Plug-In . SVG Version: 6.00 Build 0)  -->
<svg version="1.1" id="Шар_1" xmlns="http://www.w3.org/2000/svg" xmlns:xlink="http://www.w3.org/1999/xlink" x="0px" y="0px"
	 viewBox="0 0 800 600" style="enable-background:new 0 0 800 600;" xml:space="preserve">
<g>
	<polygon points="303.3,248.8 273.8,237.9 298.1,258.9 	"/>
	<polygon points="326.7,242.9 295.1,221.4 304.3,248.8 	"/>
	<polygon points="327,215.7 295.1,221.4 326.7,242.9 	"/>
	<polygon points="274.8,237.9 267.7,261.1 299.1,258.9 	"/>
	<polygon points="295.1,221.4 274.8,237.9 304.3,248.8 	"/>
	<polygon points="319.7,309.8 346,316.9 369.5,291.3 	"/>
	<polygon points="347.5,248.4 327,215.7 326.7,242.9 	"/>
	<polygon points="282.7,293.8 319.7,309.8 334.1,279.6 	"/>
	<polygon points="299.1,258.9 267.7,261.1 304,268.7 	"/>
	<polygon points="267.7,261.1 282.7,293.8 304,268.7 	"/>
	<polygon points="334.1,279.6 319.7,309.8 369.5,291.3 	"/>
	<polygon points="281.6,369.6 328.9,383.9 305.5,348.6 	"/>
	<polygon points="305.5,348.6 328.9,383.9 329.3,356.2 	"/>
	<polygon points="328.9,383.9 364.3,378 329.3,356.2 	"/>
	<polygon points="261.9,328.1 281.6,369.6 293.8,325 	"/>
	<polygon points="293.8,325 281.6,369.6 305.5,348.6 	"/>
	<polygon points="329.3,356.2 364.3,378 353.1,349.5 	"/>
	<polygon points="386.2,359.8 394,333.7 361.2,333.8 	"/>
	<polygon points="361.2,333.8 394,333.7 357.8,324 	"/>
	<polygon points="389.3,265 373.1,229.1 356.5,266.4 	"/>
	<polygon points="364.3,378 386.2,359.8 353.1,349.5 	"/>
	<polygon points="356.5,266.4 373.1,229.1 347.5,248.4 	"/>
	<polygon points="353.1,349.5 386.2,359.8 361.2,333.8 	"/>
	<polygon points="373.1,229.1 327,215.7 347.5,248.4 	"/>
	<polygon points="304,268.7 282.7,293.8 334.1,279.6 	"/>
	<polygon points="357.8,324 394,333.7 387.5,307.8 	"/>
	<polygon points="369.5,291.3 346,316.9 387.5,307.8 	"/>
	<polygon points="346,316.9 357.8,324 387.5,307.8 	"/>
	<polygon points="475.8,319.7 509.8,317.4 472.4,292.1 	"/>
	<polygon points="454.4,292.1 475.8,319.7 472.4,292.1 	"/>
	<polygon points="471.4,292.1 508.8,317.4 497.3,289.6 	"/>
	<polygon points="453.4,319.7 474.8,319.7 453.4,292.1 	"/>
	<polygon points="512.3,268.9 540.6,293.7 546.1,268.5 	"/>
	<polygon points="509.8,317.4 526.8,309.7 498.3,289.6 	"/>
	<polygon points="507.5,281.6 539.6,293.7 511.3,268.9 	"/>
	<polygon points="498.3,289.6 526.8,309.7 508.5,281.6 	"/>
	<polygon points="526.8,309.7 540.6,293.7 508.5,281.6 	"/>
	<polygon points="545.1,268.5 535.6,236.9 506,254.3 	"/>
	<polygon points="507,254.3 536.6,236.9 493.9,247.1 	"/>
	<polygon points="511.3,268.9 545.1,268.5 506,254.3 	"/>
</g>
</svg>
