<?xml version="1.0" encoding="utf-8"?>
<!-- Generator: Adobe Illustrator 19.0.1, SVG Export Plug-In . SVG Version: 6.00 Build 0)  -->
<svg version="1.1" id="Шар_1" xmlns="http://www.w3.org/2000/svg" xmlns:xlink="http://www.w3.org/1999/xlink" x="0px" y="0px"
	 viewBox="0 0 800 600" style="enable-background:new 0 0 800 600;" xml:space="preserve">
<g>
	<polygon points="311.8,331.4 366.3,284.6 335.6,259.3 	"/>
	<polygon points="331.4,382 366.3,284.6 311.8,331.4 	"/>
	<polygon points="359.5,187.3 335.6,259.3 380.3,187.3 	"/>
	<polygon points="366.3,284.6 401.2,187.3 335.6,259.3 	"/>
	<polygon points="310.4,382 331.4,382 311.8,331.4 	"/>
	<polygon points="289.5,382 310.4,382 311.8,331.4 	"/>
	<polygon points="241.2,187.3 219.9,187.3 287.1,259.3 	"/>
	<polygon points="262.5,187.3 241.2,187.3 287.1,259.3 	"/>
	<polygon points="219.9,187.3 254.7,284.6 287.1,259.3 	"/>
	<polygon points="335.6,259.3 401.2,187.3 380.3,187.3 	"/>
	<polygon points="287.1,259.3 254.7,284.6 311.8,331.4 	"/>
	<polygon points="254.7,284.6 289.5,382 311.8,331.4 	"/>
	<polygon points="461.1,273.8 492.9,290.6 520,263.1 	"/>
	<polygon points="500.8,230.5 461.1,273.8 520,263.1 	"/>
	<polygon points="556.7,225.2 500.8,230.5 520,263.1 	"/>
	<polygon points="540.5,187.3 500.8,230.5 556.7,225.2 	"/>
	<polygon points="566.9,187.3 540.5,187.3 556.7,225.2 	"/>
	<polygon points="593.3,187.3 566.9,187.3 556.7,225.2 	"/>
	<polygon points="558.7,322.6 571.9,382 597.3,382 	"/>
	<polygon points="546.5,382 571.9,382 558.7,322.6 	"/>
	<polygon points="520,263.1 492.9,290.6 558.7,322.6 	"/>
	<polygon points="492.9,290.6 519.7,336.3 558.7,322.6 	"/>
	<polygon points="519.7,336.3 546.5,382 558.7,322.6 	"/>
	<polygon points="461.1,382 461.1,352.6 441.4,382 	"/>
	<polygon points="421.7,187.3 421.7,284.6 461.1,230.5 	"/>
	<polygon points="441.4,187.3 421.7,187.3 461.1,230.5 	"/>
	<polygon points="461.1,187.3 441.4,187.3 461.1,230.5 	"/>
	<polygon points="421.7,284.6 461.1,323.2 461.1,273.8 	"/>
	<polygon points="461.1,230.5 421.7,284.6 461.1,273.8 	"/>
	<polygon points="441.4,382 461.1,323.2 421.7,382 	"/>
	<polygon points="421.7,382 461.1,323.2 421.7,284.6 	"/>
	<polygon points="461.1,352.6 461.1,323.2 441.4,382 	"/>
	<polygon points="461.1,323.2 477,306.9 461.1,273.8 	"/>
	<polygon points="477,306.9 492.9,290.6 461.1,273.8 	"/>
</g>
</svg>
